<svg xmlns="http://www.w3.org/2000/svg" width="20.208" height="20" viewBox="0 0 20.208 20">
  <g id="Vergleichen_Icon" data-name="Vergleichen Icon" transform="translate(-0.016)">
    <g id="Group_33" data-name="Group 33" transform="translate(0.016)">
      <path id="Path_24" data-name="Path 24" d="M4.258,9.1.449,10.156c-.316.087-.5.213-.41.529.071.261.312.229.568.229a.547.547,0,0,0,.158-.024L3.658,10.1l-3.166,5.4a.586.586,0,0,0-.083.3,4.068,4.068,0,0,0,4,4.188,4.031,4.031,0,0,0,4-4.188.586.586,0,0,0-.083-.3L4.9,9.71,15.089,6.876l-3.154,5.463a.447.447,0,0,0-.083.3c.391,2.368,1.583,3.837,3.975,3.951A4.01,4.01,0,0,0,18.8,15.173a4.211,4.211,0,0,0,1-2.53.586.586,0,0,0-.083-.3L16.336,6.544l3.454-.932c.316-.087.5-.213.41-.529s-.414-.3-.73-.209l-3.8,1.054h0L10.51,7.361l0-6.769c0-.328-.067-.592-.395-.592s-.391.264-.391.592l0,6.978M4.412,19.222a3.566,3.566,0,0,1-3.359-3.027l6.722.008A3.542,3.542,0,0,1,4.412,19.222Zm2.96-3.805H1.456l2.956-5Zm8.455-8.182L18.8,12.252l-5.932.012Zm0,8.62a3.408,3.408,0,0,1-3.158-2.83h6.315A3.412,3.412,0,0,1,15.827,15.856Z" transform="translate(-0.016)" fill="#707070"/>
    </g>
  </g>
</svg>
