<svg enable-background="new 0 0 468.7 295.2" viewBox="0 0 468.7 295.2" xmlns="http://www.w3.org/2000/svg"><path clip-rule="evenodd" d="m462.4 40.5v217.2c0 18.9-15.4 34.3-34.3 34.3h-388.7c-18.9 0-34.3-15.4-34.3-34.3v-217.2c0-18.9 15.3-34.3 34.3-34.3h388.7c18.9 0 34.3 15.3 34.3 34.3z" fill="#f9f9fa" fill-rule="evenodd"/><path d="m428.1 292.8h-388.7c-19.4 0-35.1-15.8-35.2-35.1v-217.2c.1-19.4 15.8-35.2 35.2-35.2h388.7c19.4 0 35.2 15.8 35.2 35.2v217.2c-.1 19.3-15.9 35.1-35.2 35.1zm-388.7-285.8c-18.4 0-33.4 15-33.5 33.5v217.2c0 18.4 15 33.4 33.4 33.4h388.7c18.4 0 33.4-15 33.4-33.5v-217.2c0-18.4-15-33.4-33.5-33.5h-388.5z" fill="#717171"/><path d="m336.1 146.4h-28.1c-3.1 0-5.6-2.5-5.6-5.6s2.5-5.8 5.6-5.8h42.7v-21.1h-42.7c-14.9 0-27 12.2-27 27s12.1 27 27 27h27.7c3.1 0 5.6 2.5 5.6 5.6s-2.5 5.4-5.6 5.4h-59.4c-5 9.6-9.9 17.9-19.9 22h79.6c14.6-.2 26.6-12.6 26.6-27.3.1-14.7-11.9-27-26.5-27.2" fill="#727170"/><path d="m228.5 113.9c-23.8 0-43.2 19.5-43.2 43.4v.9 89.4h21.5v-46.6h21.6c23.8 0 43.1-19.8 43.1-43.7 0-24-19.2-43.4-43-43.4m0 65.1h-21.6v-21.7c0-12.1 9.7-22 21.6-22 12 0 21.7 9.9 21.7 22s-9.8 21.7-21.7 21.7" fill="#727170"/><path d="m117.2 201c-20.4 0-37.5-14.5-42.1-33.5 0 0-1.3-6.3-1.3-10.4s1.3-10.4 1.3-10.4c4.7-18.9 21.8-33 42.1-33 23.9 0 43.5 19.4 43.5 43.3v10.5h-63.7c3.8 7.3 11.4 11.4 20.1 11.4h57.1l.1-62c0-9.2-7.5-16.8-16.8-16.8h-80.9c-9.2 0-16.8 7.3-16.8 16.6v80.9c0 9.2 7.6 17 16.8 17h80.9c8.3 0 15.2-5.9 16.6-13.7z" fill="#b81e68"/><path d="m117.1 134.3c-8.7 0-16.3 5.3-20.1 12.2h40.1c-3.7-6.9-11.3-12.2-20-12.2" fill="#b81e68"/><path d="m153.7 73.9c0-19.8-16.4-35.7-36.7-35.7-19.9 0-36.1 15.5-36.6 34.8v.3 10.7c0 1.3 1 2.6 2.4 2.6h13.5c1.3 0 2.5-1.3 2.5-2.6v-10c0-10 8.2-18 18.3-18s18.3 8 18.3 17.9v10c0 1.3 1 2.6 2.4 2.6h13.5c1.3 0 2.5-1.3 2.5-2.6z" fill="#b81e68"/><g fill="#727170"><path d="m252.6 228.9-1.9 11c-1 5.6-4.6 8.1-9.6 8.1-4.2 0-7.5-2.7-6.5-8.1l1.9-11h3l-1.9 11c-.6 3.5 1 5.4 3.9 5.4 3 0 5.6-1.8 6.2-5.4l1.9-11zm-11.8-3.4c0 .9.7 1.3 1.5 1.3 1 0 2-.6 2-1.9 0-.9-.6-1.3-1.4-1.3-1-.1-2.1.5-2.1 1.9m6.5-.1c0 1 .7 1.4 1.5 1.4s1.9-.6 1.9-1.9c0-.9-.6-1.4-1.4-1.4-.9 0-2 .6-2 1.9"/><path d="m259.9 228.9-1.3 7.6c1.2-1.6 3.5-2.4 5.1-2.4 3.4 0 5.7 2 5.7 5.6 0 5.2-3.6 8.3-8.2 8.3-1.8 0-3.3-.6-4.2-2.3l-.5 2h-2.6l3.3-18.8zm-2.1 12.9c-.1 2.2 1.3 3.6 3.4 3.6 2.6 0 5.2-2 5.3-5.1.1-2.3-1.3-3.6-3.4-3.6-2.5 0-5.2 2.2-5.3 5.1"/><path d="m274.8 242.2c-.1 1.8 1.3 3.3 3.8 3.3 1.3 0 3.1-.5 4.1-1.4l1.5 1.7c-1.6 1.5-4.1 2.3-6.2 2.3-3.9 0-6.1-2.3-6.1-5.8 0-4.7 3.7-8.2 8.4-8.2 4.3 0 6.8 2.6 5.3 8.1zm8.6-2.3c.2-2.3-1.1-3.2-3.4-3.2-2 0-3.9 1-4.7 3.2z"/><path d="m293.1 234.4-.1 1.8c1.3-1.7 2.9-2.1 4.3-2.1 1.3 0 2.5.5 3.1 1.1l-1.7 2.4c-.6-.6-1.2-.8-2.2-.8-1.9 0-3.8 1.2-4.2 3.6l-1.3 7.2h-2.8l2.4-13.3z"/><path d="m313.8 234.4 1.4 10.5 5.1-10.5h3.1l-7 13.3h-3.2l-1.4-8.8-2.1 4.4-2.3 4.4h-3.3l-2.3-13.3h3.1l1.4 10.5 5.1-10.5z"/><path d="m327 242.2c-.1 1.8 1.3 3.3 3.8 3.3 1.3 0 3.1-.5 4.1-1.4l1.5 1.7c-1.6 1.5-4.1 2.3-6.2 2.3-3.9 0-6.1-2.3-6.1-5.8 0-4.7 3.7-8.2 8.4-8.2 4.3 0 6.8 2.6 5.3 8.1zm8.6-2.3c.2-2.3-1.1-3.2-3.4-3.2-2 0-3.9 1-4.7 3.2z"/><path d="m345.5 234.4-2.3 13.3h-2.8l2.3-13.3zm-2.5-3.6c0 1 .7 1.4 1.5 1.4 1.1 0 2.1-.7 2.1-2 0-.9-.6-1.4-1.4-1.4-1 0-2.2.7-2.2 2"/><path d="m357.9 237.7c-.9-1-2-1.3-3.3-1.3-1.8 0-3.2.6-3.2 1.8 0 1 1 1.4 2.6 1.5 2.4.2 5.5 1 4.9 4.5-.5 2.5-2.9 3.9-6.4 3.9-2.2 0-4.2-.5-5.7-2.5l1.8-2c1 1.4 2.8 1.9 4.3 2 1.3 0 2.9-.5 3.2-1.7s-.8-1.6-2.8-1.8c-2.3-.2-4.8-1-4.8-3.6 0-3.3 3.6-4.5 6.3-4.5 2.1 0 3.6.5 4.8 1.8z"/><path d="m366.7 234.4-1.3 7.1c-.4 2.3.6 3.9 2.9 3.9 2.2 0 4.1-1.8 4.4-4l1.2-7h2.8l-2.3 13.3h-2.5l.2-1.9c-1.6 1.5-3.1 2.2-5 2.2-3.3 0-5.2-2.3-4.5-6.4l1.3-7.2z"/><path d="m389.1 247.7 1.3-7.1c.4-2.3-.4-3.8-2.9-3.8-2.2 0-4.1 1.8-4.5 4l-1.2 7h-2.8l2.3-13.3h2.6l-.2 1.9c1.6-1.4 3.2-2.1 4.9-2.1 3.2 0 5.4 2.3 4.6 6.3l-1.3 7.1z"/><path d="m398.5 249.5c-.2 1.8 1.2 2.6 3.6 2.6 2.1 0 4.3-1.1 4.8-4.1l.4-2.3c-1.2 1.7-3.4 2.4-5.1 2.4-3.4 0-5.8-2-5.8-5.7 0-5.2 3.9-8.3 8.3-8.3 1.9 0 3.6.9 4.2 2.4l.5-2.1h2.7l-2.3 13.7c-.9 5.1-4.6 6.6-8.1 6.6-4.1 0-6.4-2-5.8-5.2zm.8-7.6c0 2.3 1.5 3.6 3.6 3.6 5.8 0 7.3-8.8 1.6-8.8-2.8 0-5.2 2-5.2 5.2"/></g></svg>